<svg xmlns="http://www.w3.org/2000/svg" xmlns:xlink="http://www.w3.org/1999/xlink" viewBox="0 0 512 512"><defs><linearGradient id="a" x1="-21.2" x2="485.855" y1="477.2" y2="-29.855" data-name="New Gradient Swatch 1" gradientUnits="userSpaceOnUse"><stop offset="0" stop-color="#ffffff" class="stopColor003f8a svgShape"></stop><stop offset=".518" stop-color="#30cce5" class="stopColor00d7df svgShape"></stop><stop offset="1" stop-color="#b94177" class="stopColor006df0 svgShape"></stop></linearGradient><linearGradient id="b" x1="10.8" x2="517.855" y1="509.2" y2="2.145" xlink:href="#a"></linearGradient><linearGradient id="c" x1="-129.2" x2="377.855" y1="369.2" y2="-137.855" xlink:href="#a"></linearGradient><linearGradient id="d" x1="70.8" x2="577.855" y1="569.2" y2="62.145" xlink:href="#a"></linearGradient><linearGradient id="e" x1="46.8" x2="553.855" y1="545.2" y2="38.145" xlink:href="#a"></linearGradient><linearGradient id="f" x1="94.8" x2="601.855" y1="593.2" y2="86.145" xlink:href="#a"></linearGradient><linearGradient id="g" x1="118.8" x2="625.855" y1="617.2" y2="110.145" xlink:href="#a"></linearGradient><linearGradient id="h" x1="22.8" x2="529.855" y1="521.2" y2="14.145" xlink:href="#a"></linearGradient><linearGradient id="i" x1="42.8" x2="549.855" y1="541.2" y2="34.145" xlink:href="#a"></linearGradient><linearGradient id="j" x1="14.8" x2="521.855" y1="513.2" y2="6.145" xlink:href="#a"></linearGradient></defs><path fill="url(#a)" d="M472,80H40A32.036,32.036,0,0,0,8,112V288a32.036,32.036,0,0,0,32,32H472a32.036,32.036,0,0,0,32-32V112A32.036,32.036,0,0,0,472,80Zm16,208a16.021,16.021,0,0,1-16,16H40a16.021,16.021,0,0,1-16-16V112A16.021,16.021,0,0,1,40,96H472a16.021,16.021,0,0,1,16,16Z"></path><path fill="url(#b)" d="M440,240H72a8,8,0,0,0-8,8v32a8,8,0,0,0,8,8H440a8,8,0,0,0,8-8V248A8,8,0,0,0,440,240Zm-8,32H80V256H432Z"></path><path fill="url(#c)" d="M168,152V120a8,8,0,0,0-8-8H48a8,8,0,0,0-8,8v32a8,8,0,0,0,8,8H160A8,8,0,0,0,168,152Zm-16-8H56V128h96Z"></path><path fill="url(#d)" d="M262.656,339.562a8,8,0,1,0-13.312,8.876c.123.185,12.232,18.672,1,29.905-16.324,16.324-7.792,39.906-1,50.095a8,8,0,0,0,13.312-8.876c-.123-.185-12.232-18.672-1-29.905C277.981,373.333,269.449,349.751,262.656,339.562Z"></path><path fill="url(#e)" d="M214.656,339.562a8,8,0,1,0-13.312,8.876c.123.185,12.232,18.672,1,29.905-16.324,16.324-7.792,39.906-1,50.095a8,8,0,0,0,13.312-8.876c-.123-.185-12.232-18.672-1-29.905C229.981,373.333,221.449,349.751,214.656,339.562Z"></path><path fill="url(#f)" d="M310.656,339.562a8,8,0,1,0-13.312,8.876c.123.185,12.232,18.672,1,29.905-16.324,16.324-7.792,39.906-1,50.095a8,8,0,0,0,13.312-8.876c-.123-.185-12.232-18.672-1-29.905C325.981,373.333,317.449,349.751,310.656,339.562Z"></path><path fill="url(#g)" d="M358.656,339.562a8,8,0,1,0-13.312,8.876c.123.185,12.232,18.672,1,29.905-16.324,16.324-7.792,39.906-1,50.095a8,8,0,0,0,13.312-8.876c-.123-.185-12.232-18.672-1-29.905C373.981,373.333,365.449,349.751,358.656,339.562Z"></path><path fill="url(#h)" d="M166.656,339.562a8,8,0,1,0-13.312,8.876c.123.185,12.232,18.672,1,29.905-16.324,16.324-7.792,39.906-1,50.095a8,8,0,0,0,13.312-8.876c-.123-.185-12.232-18.672-1-29.905C181.981,373.333,173.449,349.751,166.656,339.562Z"></path><path fill="url(#i)" d="M464,112H432a8,8,0,0,0-8,8v32a8,8,0,0,0,8,8h32a8,8,0,0,0,8-8V120A8,8,0,0,0,464,112Zm-8,32H440V128h16Z"></path><path fill="url(#j)" d="M376,160h32a8,8,0,0,0,8-8V120a8,8,0,0,0-8-8H376a8,8,0,0,0-8,8v32A8,8,0,0,0,376,160Zm8-32h16v16H384Z"></path></svg>