<svg xmlns="http://www.w3.org/2000/svg" data-name="Layer 15" viewBox="0 0 32 32"><defs><linearGradient id="a" x1="2.88" x2="29.12" y1="2.88" y2="29.12" gradientUnits="userSpaceOnUse"><stop offset="0" stop-color="#ffffff" class="stopColorfee140 svgShape"></stop><stop offset="1" stop-color="#fe7365" class="stopColorfa709a svgShape"></stop></linearGradient></defs><path fill="url(#a)" d="M27,2H5A3,3,0,0,0,2,5V27a3,3,0,0,0,3,3H27a3,3,0,0,0,3-3V5A3,3,0,0,0,27,2ZM14,28H8V20.414a2.432,2.432,0,0,1,.707-1.707A4.383,4.383,0,0,0,10,15.586V12h2v3.586a4.383,4.383,0,0,0,1.293,3.121A2.432,2.432,0,0,1,14,20.414V28ZM10,10V8h2v2H10ZM24,28H20V24.388l4,1.333V28Zm0-4.388-4-1.333V20h4v3.612ZM28,27a1,1,0,0,1-1,1H26V19a1,1,0,0,0-1-1H24V17a1,1,0,0,0-2,0v1H19a1,1,0,0,0-1,1v9H16V20.414a4.383,4.383,0,0,0-1.293-3.121A2.432,2.432,0,0,1,14,15.586V7a1,1,0,0,0-1-1H9A1,1,0,0,0,8,7v8.586a2.432,2.432,0,0,1-.707,1.707A4.383,4.383,0,0,0,6,20.414V28H5a1,1,0,0,1-1-1V5A1,1,0,0,1,5,4H27a1,1,0,0,1,1,1V27Z"></path></svg>