<?xml version="1.0" encoding="UTF-8"?><svg id="Layer_1" xmlns="http://www.w3.org/2000/svg" viewBox="0 0 1832.17 919.15"><defs><style>.cls-1{fill:#fff;}</style></defs><circle class="cls-1" cx="754.19" cy="808.94" r="67.89"/><g><path class="cls-1" d="M1258.69,16.45V334.19c0,122.12,99,221.12,221.12,221.12h317.75V16.45h-538.86Z"/><path class="cls-1" d="M656.54,334.19c0,122.12,99,221.12,221.1,221.12h317.76V16.45H656.54V334.19Z"/><path class="cls-1" d="M343.62,16.45H25.87V555.31H564.72V237.55c0-122.1-98.98-221.1-221.1-221.1Z"/></g><g><path class="cls-1" d="M137.8,747.3c-7.93-6.54-18.57-9.82-31.91-9.82-10.07,0-19.01,1.26-26.81,3.78-7.81,2.52-14.48,5.42-20.01,8.69v141.23c-1.26,.51-3.15,1.07-5.66,1.7-2.52,.62-5.29,.94-8.31,.94-10.83,0-16.24-4.53-16.24-13.59v-128.77c0-5.29,1.07-9.63,3.21-13.03,2.14-3.4,5.85-6.73,11.14-10.01,6.54-4.02,15.23-7.68,26.06-10.95,10.82-3.27,23.04-4.91,36.63-4.91,22.91,0,40.97,5.16,54.19,15.48,13.22,10.33,19.83,26.56,19.83,48.71v114.42c-1.26,.51-3.21,1.07-5.85,1.7-2.64,.62-5.35,.94-8.12,.94-10.83,0-16.24-4.53-16.24-13.59v-101.96c0-14.1-3.97-24.42-11.9-30.96Z"/><path class="cls-1" d="M236.55,718.22c1.26-.5,3.21-1.07,5.85-1.7,2.64-.63,5.48-.94,8.5-.94,10.57,0,15.86,4.66,15.86,13.97v97.05c0,16.37,4.28,28.01,12.84,34.93,8.56,6.93,20.39,10.38,35.5,10.38,10.07,0,18.63-1.07,25.68-3.21,7.05-2.14,12.59-4.34,16.62-6.61v-143.88c1.26-.5,3.21-1.07,5.85-1.7,2.64-.63,5.35-.94,8.12-.94,10.82,0,16.24,4.66,16.24,13.97v131.41c0,5.29-.7,9.5-2.08,12.65-1.39,3.15-4.72,6.23-10.01,9.25-5.79,3.27-13.78,6.42-23.98,9.44-10.2,3.02-22.47,4.53-36.82,4.53-25.18,0-44.5-5.53-57.96-16.62-13.47-11.08-20.2-28.45-20.2-52.11v-109.89Z"/><path class="cls-1" d="M444.24,718.22c1.26-.5,3.21-1.07,5.85-1.7,2.64-.63,5.48-.94,8.5-.94,10.57,0,15.86,4.66,15.86,13.97v97.05c0,16.37,4.28,28.01,12.84,34.93,8.56,6.93,20.39,10.38,35.5,10.38,10.07,0,18.63-1.07,25.68-3.21,7.05-2.14,12.59-4.34,16.62-6.61v-143.88c1.26-.5,3.21-1.07,5.85-1.7,2.64-.63,5.35-.94,8.12-.94,10.82,0,16.24,4.66,16.24,13.97v131.41c0,5.29-.7,9.5-2.08,12.65-1.39,3.15-4.72,6.23-10.01,9.25-5.79,3.27-13.78,6.42-23.98,9.44-10.2,3.02-22.47,4.53-36.82,4.53-25.18,0-44.5-5.53-57.96-16.62-13.47-11.08-20.2-28.45-20.2-52.11v-109.89Z"/></g><g><path class="cls-1" d="M1113.86,746.16c-7.05-5.79-16.49-8.69-28.32-8.69-16.37,0-30.96,5.79-43.8,17.37,1.51,5.04,2.27,10.45,2.27,16.24v120.08c-1.26,.51-3.21,1.07-5.85,1.7-2.64,.62-5.35,.94-8.12,.94-10.83,0-16.24-4.53-16.24-13.59v-106.87c0-12.33-3.53-21.39-10.57-27.19-7.05-5.79-16.62-8.69-28.7-8.69-8.06,0-15.67,1.26-22.85,3.78-7.17,2.52-13.28,5.42-18.31,8.69v141.23c-1.26,.51-3.15,1.07-5.66,1.7-2.52,.62-5.29,.94-8.31,.94-10.83,0-16.24-4.53-16.24-13.59v-128.77c0-5.03,1.07-9.25,3.21-12.65,2.14-3.4,5.85-6.86,11.14-10.38,6.8-4.28,15.42-7.99,25.87-11.14,10.44-3.14,20.96-4.72,31.53-4.72,12.33,0,23.28,1.83,32.85,5.48,9.56,3.65,16.86,8.63,21.9,14.92,6.54-5.79,14.73-10.63,24.54-14.54,9.82-3.9,21.02-5.85,33.61-5.85,20.39,0,36.63,4.85,48.71,14.54,12.08,9.69,18.13,24.61,18.13,44.75v119.33c-1.26,.51-3.21,1.07-5.85,1.7-2.64,.62-5.35,.94-8.12,.94-10.83,0-16.24-4.53-16.24-13.59v-106.87c0-12.33-3.53-21.39-10.57-27.19Z"/><path class="cls-1" d="M1373.28,804.69c0,14.1-2.02,26.81-6.04,38.14-4.03,11.33-9.76,21.02-17.18,29.08-7.43,8.06-16.43,14.23-27,18.5-10.57,4.28-22.41,6.42-35.5,6.42s-24.92-2.14-35.5-6.42c-10.57-4.28-19.64-10.44-27.19-18.5-7.55-8.05-13.35-17.75-17.37-29.08-4.03-11.33-6.04-24.04-6.04-38.14s2.08-26.81,6.23-38.14,10.01-21.02,17.56-29.08c7.55-8.05,16.62-14.22,27.19-18.5,10.57-4.28,22.28-6.42,35.12-6.42s24.55,2.14,35.12,6.42c10.57,4.28,19.57,10.45,27,18.5,7.42,8.06,13.22,17.75,17.37,29.08,4.15,11.33,6.23,24.04,6.23,38.14Zm-85.72-67.22c-17.12,0-30.59,5.92-40.41,17.75-9.82,11.84-14.73,28.32-14.73,49.47s4.84,37.95,14.54,49.66c9.69,11.71,23.22,17.56,40.59,17.56s30.84-5.91,40.41-17.75c9.56-11.83,14.35-28.32,14.35-49.47s-4.85-37.63-14.54-49.47c-9.69-11.83-23.1-17.75-40.22-17.75Z"/><path class="cls-1" d="M1479.77,896.83c-17.62,0-31.91-3.91-42.86-11.71-10.95-7.8-16.43-20.77-16.43-38.9v-179.37c1.26-.5,3.21-1.07,5.85-1.7,2.64-.62,5.48-.94,8.5-.94,10.57,0,15.86,4.53,15.86,13.59v43.43h61.93c.75,1.26,1.51,2.96,2.27,5.1,.75,2.14,1.13,4.47,1.13,6.99,0,8.56-3.78,12.84-11.33,12.84h-54v98.18c0,10.07,2.83,17.18,8.5,21.34,5.66,4.15,13.65,6.23,23.98,6.23,4.28,0,9.06-.76,14.35-2.27,5.29-1.51,9.69-3.27,13.22-5.29,1.51,1.51,2.89,3.4,4.15,5.66,1.26,2.27,1.89,4.91,1.89,7.93,0,5.54-3.27,10.07-9.82,13.59-6.55,3.52-15.61,5.29-27.19,5.29Z"/><path class="cls-1" d="M1576.44,822.44c6.8,32.98,28.45,49.47,64.95,49.47,10.57,0,20.14-1.76,28.7-5.29,8.56-3.52,15.35-7.3,20.39-11.33,6.04,3.53,9.06,8.31,9.06,14.35,0,3.53-1.58,6.93-4.72,10.2-3.15,3.27-7.43,6.17-12.84,8.69-5.42,2.52-11.71,4.53-18.88,6.04s-14.92,2.27-23.22,2.27c-29.21,0-52.3-7.93-69.29-23.79s-25.49-39.02-25.49-69.48c0-14.35,2.08-27.12,6.23-38.33,4.15-11.2,9.94-20.71,17.37-28.51,7.42-7.8,16.3-13.78,26.62-17.94,10.32-4.15,21.52-6.23,33.61-6.23,11.33,0,21.77,1.89,31.34,5.66,9.56,3.78,17.81,9.13,24.73,16.05,6.92,6.93,12.33,15.11,16.24,24.55,3.9,9.44,5.85,19.83,5.85,31.15,0,5.54-1.26,9.5-3.78,11.89-2.52,2.4-6.04,3.84-10.57,4.34l-116.31,16.24Zm52.11-85.34c-15.36,0-28.07,5.35-38.14,16.05-10.07,10.7-15.36,26-15.86,45.88l103.85-14.35c-1.26-13.84-6.11-25.24-14.54-34.17-8.44-8.93-20.2-13.41-35.31-13.41Z"/><path class="cls-1" d="M1778.47,892.87c-2.52,.62-5.29,.94-8.31,.94-10.83,0-16.24-4.53-16.24-13.59v-232.99c1.26-.5,3.21-1.07,5.85-1.7,2.64-.63,5.35-.94,8.12-.94,10.82,0,16.24,4.53,16.24,13.59v232.99c-1.26,.51-3.15,1.07-5.66,1.7Z"/></g></svg>